<svg width="147" height="53" viewBox="0 0 147 53" fill="none" xmlns="http://www.w3.org/2000/svg">
<path d="M20.0938 15.8438L17.125 18.832L20.0938 21.8594L23.1016 18.832L20.0938 15.8438ZM13.5703 15.8438L10.582 18.832L13.5703 21.8594L16.5781 18.832L13.5703 15.8438ZM28.1797 23.1875C28.2057 23.7474 28.2383 24.3854 28.2773 25.1016C28.3294 25.8177 28.3555 26.4753 28.3555 27.0742C28.3555 28.1549 27.9844 29.0208 27.2422 29.6719C26.5 30.3229 25.4258 30.7982 24.0195 31.0977C22.6263 31.3841 20.9336 31.5273 18.9414 31.5273H15.6797C13.987 31.5273 12.4635 31.4362 11.1094 31.2539C9.76823 31.0586 8.61589 30.7461 7.65234 30.3164C6.70182 29.8867 5.96615 29.3073 5.44531 28.5781C4.9375 27.849 4.68359 26.944 4.68359 25.8633C4.68359 25.2122 4.76823 24.5286 4.9375 23.8125C5.11979 23.0833 5.3151 22.4258 5.52344 21.8398L1.77344 20.4336C1.42188 21.293 1.12891 22.2109 0.894531 23.1875C0.673177 24.151 0.5625 25.1406 0.5625 26.1562C0.5625 27.9531 0.901042 29.4766 1.57812 30.7266C2.26823 31.9635 3.26432 32.9727 4.56641 33.7539C5.86849 34.5352 7.45052 35.1081 9.3125 35.4727C11.1875 35.8242 13.3099 36 15.6797 36H18.9414C20.8555 36 22.4961 35.8893 23.8633 35.668C25.2435 35.4336 26.4284 35.0755 27.418 34.5938C28.4076 34.112 29.2734 33.474 30.0156 32.6797C30.6406 33.7865 31.4349 34.6198 32.3984 35.1797C33.375 35.7266 34.599 36 36.0703 36H36.5V31.5273H36.0703C34.8984 31.5273 34.0326 31.1823 33.4727 30.4922C32.9128 29.7891 32.5938 28.8711 32.5156 27.7383L32.1445 22.6992L28.1797 23.1875ZM35.7969 31.5273V36H37.3008C40.0352 36 42.0208 35.2773 43.2578 33.832C44.5078 32.3867 45.1328 30.2513 45.1328 27.4258V8.69531H40.9336V27.2305C40.9336 28.5456 40.6992 29.5938 40.2305 30.375C39.7747 31.1432 38.8047 31.5273 37.3203 31.5273H35.7969ZM56.7148 20.6289C55.556 20.6289 54.5404 20.9023 53.668 21.4492C52.7956 21.9961 52.0664 22.7188 51.4805 23.6172C50.9076 24.5026 50.4779 25.4727 50.1914 26.5273C49.918 27.569 49.7812 28.5846 49.7812 29.5742C49.7812 31.7747 50.4258 33.3958 51.7148 34.4375C53.0169 35.4792 54.9375 36 57.4766 36H60.0156C59.6901 37.0938 59.0716 38.0638 58.1602 38.9102C57.2487 39.7565 56.0898 40.4792 54.6836 41.0781C53.2773 41.6771 51.6628 42.1589 49.8398 42.5234L51.3438 46.5469C54 46.0391 56.194 45.2839 57.9258 44.2812C59.6576 43.2786 61.0052 42.0742 61.9688 40.668C62.9453 39.2617 63.6224 37.7057 64 36H66.3047V31.5273H64.3516C64.2865 29.9258 64.0716 28.4609 63.707 27.1328C63.3555 25.8047 62.8477 24.6589 62.1836 23.6953C61.5326 22.7188 60.7513 21.9635 59.8398 21.4297C58.9284 20.8958 57.8867 20.6289 56.7148 20.6289ZM57.3594 31.5273C56.1745 31.5273 55.2826 31.3776 54.6836 31.0781C54.0846 30.7786 53.7852 30.2188 53.7852 29.3984C53.7852 28.8776 53.8698 28.2786 54.0391 27.6016C54.2083 26.9245 54.5013 26.332 54.918 25.8242C55.3477 25.3034 55.9336 25.043 56.6758 25.043C57.2617 25.043 57.7695 25.2057 58.1992 25.5312C58.6419 25.8438 59.013 26.293 59.3125 26.8789C59.612 27.4518 59.8464 28.1354 60.0156 28.9297C60.1979 29.7109 60.3216 30.5768 60.3867 31.5273H57.3594ZM65.543 31.5273V36H69.1758V31.5273H65.543ZM70.9531 36C73.0234 36 74.638 35.6354 75.7969 34.9062C76.9688 34.1641 77.7891 33.1484 78.2578 31.8594C78.7396 30.5573 78.9805 29.0534 78.9805 27.3477C78.9805 26.306 78.9089 25.1797 78.7656 23.9688C78.6224 22.7578 78.388 21.5729 78.0625 20.4141L73.9609 21.5078C74.2995 22.7708 74.5404 23.9622 74.6836 25.082C74.8398 26.1888 74.918 27.1068 74.918 27.8359C74.918 29.099 74.6185 30.0299 74.0195 30.6289C73.4336 31.2279 72.3984 31.5273 70.9141 31.5273H68.8047V36H70.9531ZM74.7422 38.832L71.7734 41.8203L74.7422 44.8477L77.75 41.8203L74.7422 38.832ZM68.2188 38.832L65.2305 41.8203L68.2188 44.8477L71.2266 41.8203L68.2188 38.832ZM97.2227 32.2305C97.2227 30.7982 97.0729 29.3984 96.7734 28.0312C96.487 26.651 96.0312 25.4076 95.4062 24.3008C94.7943 23.194 94.0065 22.3151 93.043 21.6641C92.0794 21 90.9141 20.668 89.5469 20.668C88.401 20.668 87.3919 20.9349 86.5195 21.4688C85.6471 21.9896 84.918 22.6927 84.332 23.5781C83.7591 24.4505 83.3229 25.4141 83.0234 26.4688C82.737 27.5104 82.5938 28.5456 82.5938 29.5742C82.5938 31.8008 83.2383 33.4414 84.5273 34.4961C85.8294 35.5378 87.6784 36.0586 90.0742 36.0586C90.4779 36.0586 90.9401 36.013 91.4609 35.9219C91.9818 35.8307 92.457 35.7266 92.8867 35.6094C92.6263 36.7682 92.0469 37.7969 91.1484 38.6953C90.263 39.6068 89.0977 40.375 87.6523 41C86.2201 41.638 84.5534 42.1458 82.6523 42.5234L84.1562 46.5469C86.9427 46.013 89.306 45.1471 91.2461 43.9492C93.1992 42.7513 94.6836 41.1823 95.6992 39.2422C96.7148 37.3151 97.2227 34.9779 97.2227 32.2305ZM90.0938 31.6055C88.987 31.6055 88.1276 31.4492 87.5156 31.1367C86.9036 30.8242 86.5977 30.2448 86.5977 29.3984C86.5977 28.8906 86.6823 28.2982 86.8516 27.6211C87.0208 26.931 87.3138 26.332 87.7305 25.8242C88.1602 25.3034 88.7526 25.043 89.5078 25.043C90.0938 25.043 90.6016 25.2057 91.0312 25.5312C91.474 25.8438 91.8385 26.2865 92.125 26.8594C92.4245 27.4323 92.6589 28.0898 92.8281 28.832C93.0104 29.5742 93.1341 30.3555 93.1992 31.1758C92.7565 31.306 92.2682 31.4102 91.7344 31.4883C91.2005 31.5664 90.6536 31.6055 90.0938 31.6055Z" fill="black"/>
<path d="M138.875 11L125.438 27.5625L112 11M138.875 24.25L125.438 40.8125L112 24.25" stroke="#3B82F6" stroke-width="5" stroke-linecap="round" stroke-linejoin="round"/>
</svg>
